<?xml version="1.0" standalone="no"?>
<!DOCTYPE svg PUBLIC "-//W3C//DTD SVG 20010904//EN"
 "http://www.w3.org/TR/2001/REC-SVG-20010904/DTD/svg10.dtd">
<svg version="1.0" xmlns="http://www.w3.org/2000/svg"
 width="1472.000000pt" height="370.000000pt" viewBox="0 0 1472.000000 370.000000"
 preserveAspectRatio="xMidYMid meet">

<g transform="translate(0.000000,370.000000) scale(0.100000,-0.100000)"
fill="#000000" stroke="none">
<path d="M1195 2518 c-2 -7 -11 -56 -20 -108 -9 -52 -31 -180 -50 -285 -18
-104 -52 -296 -75 -425 -23 -129 -48 -269 -55 -310 -8 -41 -22 -118 -30 -170
-9 -52 -19 -105 -22 -117 l-5 -23 171 0 c99 0 171 4 171 9 0 5 11 70 24 143
13 73 30 166 36 206 l12 72 191 0 c245 1 317 10 413 54 135 63 246 202 290
366 26 99 25 248 -4 330 -46 133 -147 224 -282 254 -91 21 -758 24 -765 4z
m666 -341 c82 -55 91 -171 21 -266 -45 -61 -83 -71 -288 -71 l-181 0 18 103
c11 56 24 134 30 172 6 39 13 73 16 78 2 4 82 7 177 7 163 0 175 -1 207 -23z"/>
<path d="M2909 2508 c-7 -13 -33 -63 -59 -113 -26 -49 -88 -169 -138 -265 -84
-163 -513 -994 -534 -1032 -8 -17 4 -18 181 -18 l190 0 70 145 70 145 274 0
c274 0 275 0 280 -22 4 -12 14 -77 23 -145 l17 -123 179 0 c110 0 178 4 178
10 0 5 -16 101 -35 212 -60 353 -205 1217 -205 1223 0 3 -108 5 -240 5 -238 0
-239 0 -251 -22z m228 -428 c7 -47 22 -143 33 -215 11 -71 21 -146 22 -165 l3
-35 -177 -3 c-98 -1 -178 0 -178 3 0 3 56 118 125 256 146 290 152 296 172
159z"/>
<path d="M3905 2508 c-2 -13 -14 -77 -25 -143 -12 -66 -24 -130 -27 -142 l-5
-23 201 0 c111 0 201 -2 201 -5 0 -3 -14 -83 -31 -178 -16 -94 -37 -209 -45
-254 -8 -46 -20 -120 -28 -165 -8 -46 -29 -162 -46 -258 -18 -96 -34 -194 -37
-217 l-6 -43 166 0 c149 0 166 2 171 18 5 15 28 144 71 397 18 109 102 577
115 644 5 29 10 55 10 57 0 2 90 4 200 4 110 0 200 2 200 5 0 3 11 65 25 137
14 73 27 145 30 161 l5 27 -570 0 -570 0 -5 -22z"/>
<path d="M5226 2518 c-3 -7 -16 -83 -31 -168 -15 -85 -35 -202 -45 -260 -10
-58 -28 -157 -39 -220 -11 -63 -29 -167 -40 -230 -11 -63 -29 -171 -41 -240
-12 -69 -28 -158 -36 -199 -8 -40 -14 -84 -14 -97 l0 -24 164 0 c148 0 165 2
170 18 3 9 12 58 20 107 25 151 56 327 67 383 l10 52 270 0 c313 0 280 19 250
-149 -20 -105 -54 -302 -66 -373 l-6 -38 169 0 169 0 11 68 c21 119 179 1035
212 1222 11 63 22 125 24 138 l3 22 -167 0 -168 0 -15 -82 c-8 -46 -30 -170
-48 -275 l-33 -193 -273 0 c-150 0 -273 2 -273 4 0 4 15 92 65 378 14 81 25
152 25 158 0 16 -330 14 -334 -2z"/>
<path d="M6717 2438 c-20 -110 -55 -306 -92 -513 -14 -82 -32 -184 -40 -225
-7 -41 -23 -131 -35 -200 -12 -69 -33 -185 -46 -258 -13 -73 -24 -140 -24
-148 0 -12 71 -14 490 -14 l490 0 5 22 c18 79 53 293 49 300 -3 4 -148 8 -323
8 l-317 0 17 103 c15 88 76 436 149 847 11 63 22 127 25 143 l5 27 -168 0
-168 0 -17 -92z"/>
<path d="M7875 2518 c-4 -13 -35 -182 -60 -333 -8 -44 -28 -159 -45 -255 -17
-96 -35 -197 -40 -225 -5 -27 -23 -129 -40 -225 -17 -96 -38 -215 -46 -265 -8
-49 -17 -100 -21 -112 l-5 -23 499 0 499 0 23 128 c12 70 25 139 28 155 l5 27
-332 0 c-311 0 -331 1 -326 18 4 14 46 239 46 249 0 2 139 3 309 3 l309 0 17
98 c9 53 20 118 24 145 l8 47 -309 0 -310 0 5 23 c3 12 13 65 22 117 9 52 18
103 21 113 5 16 30 17 334 17 l329 0 7 48 c3 26 15 89 25 141 11 51 19 99 19
107 0 20 -988 21 -995 2z"/>
<path d="M9006 2508 c-3 -13 -15 -75 -26 -138 -11 -63 -23 -127 -26 -142 l-6
-28 202 0 203 0 -7 -32 c-4 -18 -18 -98 -32 -178 -40 -227 -41 -236 -69 -395
-15 -82 -38 -211 -51 -285 -13 -74 -27 -156 -31 -182 l-6 -48 166 0 c149 0
166 2 171 18 3 9 17 85 31 167 40 230 63 361 80 460 9 50 29 167 46 260 16 94
32 180 34 193 5 22 6 22 204 22 l199 0 6 28 c3 15 15 79 26 142 11 63 23 125
26 138 l4 22 -570 0 -570 0 -4 -22z"/>
<path d="M10327 2523 c-3 -5 -8 -30 -11 -58 -4 -27 -25 -149 -47 -270 -22
-121 -51 -285 -65 -365 -14 -80 -31 -179 -39 -220 -7 -41 -23 -131 -35 -200
-12 -69 -30 -170 -41 -224 -10 -54 -19 -100 -19 -102 0 -2 848 -4 1885 -4
l1885 0 0 150 0 150 -1197 0 c-659 0 -1417 3 -1685 7 -436 6 -488 8 -488 22 0
9 9 67 21 129 l21 112 1114 0 1114 0 0 150 0 150 -1083 0 c-596 0 -1086 2
-1089 5 -2 3 3 47 13 98 9 50 20 109 23 130 l7 37 714 0 715 0 0 155 0 155
-854 0 c-470 0 -857 -3 -859 -7z"/>
</g>
</svg>
