<svg xmlns="http://www.w3.org/2000/svg" xmlns:xlink="http://www.w3.org/1999/xlink" width="1920" zoomAndPan="magnify" viewBox="0 0 1440 809.999993" height="1080" preserveAspectRatio="xMidYMid meet" version="1.0"><defs><g/><clipPath id="f132ae5507"><path d="M 410 268.460938 L 926 268.460938 L 926 541.460938 L 410 541.460938 Z M 410 268.460938 " clip-rule="nonzero"/></clipPath><clipPath id="a134a6e704"><path d="M 737 150.304688 L 977 150.304688 L 977 270 L 737 270 Z M 737 150.304688 " clip-rule="nonzero"/></clipPath></defs><g clip-path="url(#f132ae5507)"><path fill="#83a75b" d="M 822.808594 269.410156 C 843.78125 269.492188 901.238281 268.480469 907.5625 268.867188 C 977.933594 343.332031 820.335938 376.738281 760.929688 384.65625 C 721.976562 391.273438 623.097656 398.492188 629.597656 450.507812 C 644.546875 529.894531 757.683594 520.632812 833.945312 541.507812 L 420.523438 541.507812 C 401.9375 494.507812 407.742188 433.945312 453.542969 388.792969 C 518.582031 324.753906 716.820312 337.417969 799.539062 309.84375 C 848.632812 293.476562 816.65625 274.390625 816.65625 270.203125 C 816.65625 269.628906 818.953125 269.394531 822.808594 269.410156 Z M 822.808594 269.410156 " fill-opacity="1" fill-rule="nonzero"/></g><g clip-path="url(#a134a6e704)"><path fill="#83a75b" d="M 737.6875 269.796875 L 857.277344 150.21875 L 976.847656 269.796875 Z M 737.6875 269.796875 " fill-opacity="1" fill-rule="nonzero"/></g><g fill="#292828" fill-opacity="0.4"><g transform="translate(455.187734, 515.929741)"><g><path d="M 9.328125 0 L 9.328125 -93.3125 L 52.53125 -93.3125 C 58.570312 -93.3125 63.925781 -91.976562 68.59375 -89.3125 C 73.257812 -86.644531 76.878906 -82.84375 79.453125 -77.90625 C 82.023438 -72.976562 83.3125 -67.273438 83.3125 -60.796875 C 83.3125 -54.210938 82.023438 -48.429688 79.453125 -43.453125 C 76.878906 -38.484375 73.257812 -34.664062 68.59375 -32 C 63.925781 -29.332031 58.570312 -28 52.53125 -28 L 30.65625 -28 L 30.65625 0 Z M 51.328125 -48.65625 C 54.429688 -48.65625 56.984375 -49.742188 58.984375 -51.921875 C 60.984375 -54.097656 61.984375 -57.007812 61.984375 -60.65625 C 61.984375 -64.300781 60.984375 -67.210938 58.984375 -69.390625 C 56.984375 -71.566406 54.429688 -72.65625 51.328125 -72.65625 L 30.65625 -72.65625 L 30.65625 -48.65625 Z M 51.328125 -48.65625 "/></g></g></g><g fill="#292828" fill-opacity="0.4"><g transform="translate(543.166258, 515.929741)"><g><path d="M 93.984375 0 L 70.65625 0 L 64.65625 -18.65625 L 28.65625 -18.65625 L 22.65625 0 L -0.671875 0 L 31.328125 -93.3125 L 61.984375 -93.3125 Z M 45.328125 -70.65625 L 34.65625 -37.328125 L 58.65625 -37.328125 L 48 -70.65625 Z M 45.328125 -70.65625 "/></g></g></g><g fill="#292828" fill-opacity="0.4"><g transform="translate(636.476813, 515.929741)"><g><path d="M 49.984375 0 L 28.65625 0 L 28.65625 -72.65625 L 2.671875 -72.65625 L 2.671875 -93.3125 L 75.984375 -93.3125 L 75.984375 -72.65625 L 49.984375 -72.65625 Z M 49.984375 0 "/></g></g></g><g fill="#292828" fill-opacity="0.4"><g transform="translate(715.124257, 515.929741)"><g><path d="M 30.65625 0 L 9.328125 0 L 9.328125 -93.3125 L 30.65625 -93.3125 L 30.65625 -57.984375 L 66.65625 -57.984375 L 66.65625 -93.3125 L 87.984375 -93.3125 L 87.984375 0 L 66.65625 0 L 66.65625 -36 L 30.65625 -36 Z M 30.65625 0 "/></g></g></g><g fill="#292828" fill-opacity="0.4"><g transform="translate(812.433836, 515.929741)"><g><path d="M 72.65625 0 L 9.328125 0 L 9.328125 -93.3125 L 30.65625 -93.3125 L 30.65625 -20.65625 L 72.65625 -20.65625 Z M 72.65625 0 "/></g></g></g><g fill="#292828" fill-opacity="0.4"><g transform="translate(887.082256, 515.929741)"><g><path d="M 73.328125 0 L 9.328125 0 L 9.328125 -93.3125 L 73.328125 -93.3125 L 73.328125 -73.984375 L 30.65625 -73.984375 L 30.65625 -55.984375 L 70.65625 -55.984375 L 70.65625 -37.328125 L 30.65625 -37.328125 L 30.65625 -19.328125 L 73.328125 -19.328125 Z M 73.328125 0 "/></g></g></g><g fill="#292828" fill-opacity="0.4"><g transform="translate(967.062732, 515.929741)"><g><path d="M 49.984375 0 L 28.65625 0 L 28.65625 -72.65625 L 2.671875 -72.65625 L 2.671875 -93.3125 L 75.984375 -93.3125 L 75.984375 -72.65625 L 49.984375 -72.65625 Z M 49.984375 0 "/></g></g></g><g fill="#292828" fill-opacity="0.4"><g transform="translate(1045.710176, 515.929741)"><g><path d="M 73.328125 0 L 9.328125 0 L 9.328125 -93.3125 L 73.328125 -93.3125 L 73.328125 -73.984375 L 30.65625 -73.984375 L 30.65625 -55.984375 L 70.65625 -55.984375 L 70.65625 -37.328125 L 30.65625 -37.328125 L 30.65625 -19.328125 L 73.328125 -19.328125 Z M 73.328125 0 "/></g></g></g><g fill="#292828" fill-opacity="1"><g transform="translate(449.296502, 510.038402)"><g><path d="M 9.328125 0 L 9.328125 -93.3125 L 52.53125 -93.3125 C 58.570312 -93.3125 63.925781 -91.976562 68.59375 -89.3125 C 73.257812 -86.644531 76.878906 -82.84375 79.453125 -77.90625 C 82.023438 -72.976562 83.3125 -67.273438 83.3125 -60.796875 C 83.3125 -54.210938 82.023438 -48.429688 79.453125 -43.453125 C 76.878906 -38.484375 73.257812 -34.664062 68.59375 -32 C 63.925781 -29.332031 58.570312 -28 52.53125 -28 L 30.65625 -28 L 30.65625 0 Z M 51.328125 -48.65625 C 54.429688 -48.65625 56.984375 -49.742188 58.984375 -51.921875 C 60.984375 -54.097656 61.984375 -57.007812 61.984375 -60.65625 C 61.984375 -64.300781 60.984375 -67.210938 58.984375 -69.390625 C 56.984375 -71.566406 54.429688 -72.65625 51.328125 -72.65625 L 30.65625 -72.65625 L 30.65625 -48.65625 Z M 51.328125 -48.65625 "/></g></g></g><g fill="#292828" fill-opacity="1"><g transform="translate(537.275026, 510.038402)"><g><path d="M 93.984375 0 L 70.65625 0 L 64.65625 -18.65625 L 28.65625 -18.65625 L 22.65625 0 L -0.671875 0 L 31.328125 -93.3125 L 61.984375 -93.3125 Z M 45.328125 -70.65625 L 34.65625 -37.328125 L 58.65625 -37.328125 L 48 -70.65625 Z M 45.328125 -70.65625 "/></g></g></g><g fill="#292828" fill-opacity="1"><g transform="translate(630.585557, 510.038402)"><g><path d="M 49.984375 0 L 28.65625 0 L 28.65625 -72.65625 L 2.671875 -72.65625 L 2.671875 -93.3125 L 75.984375 -93.3125 L 75.984375 -72.65625 L 49.984375 -72.65625 Z M 49.984375 0 "/></g></g></g><g fill="#292828" fill-opacity="1"><g transform="translate(709.233025, 510.038402)"><g><path d="M 30.65625 0 L 9.328125 0 L 9.328125 -93.3125 L 30.65625 -93.3125 L 30.65625 -57.984375 L 66.65625 -57.984375 L 66.65625 -93.3125 L 87.984375 -93.3125 L 87.984375 0 L 66.65625 0 L 66.65625 -36 L 30.65625 -36 Z M 30.65625 0 "/></g></g></g><g fill="#292828" fill-opacity="1"><g transform="translate(806.54258, 510.038402)"><g><path d="M 72.65625 0 L 9.328125 0 L 9.328125 -93.3125 L 30.65625 -93.3125 L 30.65625 -20.65625 L 72.65625 -20.65625 Z M 72.65625 0 "/></g></g></g><g fill="#292828" fill-opacity="1"><g transform="translate(881.191025, 510.038402)"><g><path d="M 73.328125 0 L 9.328125 0 L 9.328125 -93.3125 L 73.328125 -93.3125 L 73.328125 -73.984375 L 30.65625 -73.984375 L 30.65625 -55.984375 L 70.65625 -55.984375 L 70.65625 -37.328125 L 30.65625 -37.328125 L 30.65625 -19.328125 L 73.328125 -19.328125 Z M 73.328125 0 "/></g></g></g><g fill="#292828" fill-opacity="1"><g transform="translate(961.171477, 510.038402)"><g><path d="M 49.984375 0 L 28.65625 0 L 28.65625 -72.65625 L 2.671875 -72.65625 L 2.671875 -93.3125 L 75.984375 -93.3125 L 75.984375 -72.65625 L 49.984375 -72.65625 Z M 49.984375 0 "/></g></g></g><g fill="#292828" fill-opacity="1"><g transform="translate(1039.818945, 510.038402)"><g><path d="M 73.328125 0 L 9.328125 0 L 9.328125 -93.3125 L 73.328125 -93.3125 L 73.328125 -73.984375 L 30.65625 -73.984375 L 30.65625 -55.984375 L 70.65625 -55.984375 L 70.65625 -37.328125 L 30.65625 -37.328125 L 30.65625 -19.328125 L 73.328125 -19.328125 Z M 73.328125 0 "/></g></g></g></svg>